<svg version="1.1" xmlns="http://www.w3.org/2000/svg" xmlns:xlink="http://www.w3.org/1999/xlink" viewBox="0 0 160 160">
  <circle cx="80" cy="80" r="70" fill="white"/>
    <path fill="#000000" opacity="1.000000" stroke="none" d="M109.657211,62.544647  	C111.226807,47.161709 100.141548,33.552464 86.118370,31.467527  	C70.154694,29.094080 56.840683,38.136936 52.948971,53.603867  	C51.212013,60.507107 52.440647,67.138435 55.595978,73.463058  	C57.577286,77.434441 59.495296,81.437401 61.622269,85.796227  	C57.997169,86.568817 55.156033,86.570709 53.423374,83.758430  	C45.141300,70.315804 41.918716,56.429790 50.699657,41.364620  	C58.553352,27.890299 74.641052,21.414547 89.886780,25.521055  	C106.090614,29.885630 116.147835,42.749908 116.415047,58.888371  	C116.525902,65.583549 115.223404,71.763527 112.021835,77.592888  	C111.460541,78.614876 110.843719,79.625916 110.439560,80.711632  	C106.394112,91.579163 100.645470,100.464943 87.192451,101.158028  	C89.029190,102.096779 90.930786,102.929855 92.683388,104.005676  	C94.257858,104.972160 97.080772,105.238281 96.389450,107.937561  	C95.709648,110.591827 94.973587,113.678612 91.642982,114.395927  	C87.268333,115.338104 82.836693,116.015648 78.429749,116.807983  	C78.969215,122.607994 79.337097,122.911568 88.026657,124.298035  	C86.518150,128.920288 84.391182,133.052841 81.054001,138.098434  	C75.510941,128.789276 71.298180,119.876686 67.137703,110.570633  	C73.363884,108.732018 79.243683,110.958603 85.225662,108.144485  	C79.063713,104.937042 73.106316,103.239563 66.938248,102.166649  	C63.080715,101.495651 59.890995,100.183075 59.864132,94.781479  	C66.236298,94.635757 72.513336,95.321686 78.764816,94.778671  	C84.289589,94.298790 89.592705,92.998138 94.855103,91.417480  	C96.613525,90.889313 98.218483,90.112587 99.130753,88.258408  	C103.168114,80.052475 107.969666,72.170441 109.657211,62.544647  z"/>
</svg>